RBDS011runT25_grf
version=1
nRows=15
nColumns=19
inDegrees=no
endheader
time	ground_force_r_vx	ground_force_r_vy	ground_force_r_vz	ground_force_r_px	ground_force_r_py	ground_force_r_pz	ground_force_r_mx	ground_force_r_my	ground_force_r_mz	ground_force_l_vx	ground_force_l_vy	ground_force_l_vz	ground_force_l_px	ground_force_l_py	ground_force_l_pz	ground_force_l_mx	ground_force_l_my	ground_force_l_mz
     14.99900000	      0.00000000	      0.00000000	      0.00000000	      0.00000000	      0.00000000	      0.00000000	      0.00000000	      0.00000000	      0.00000000	   -193.62311575	   1447.56786673	     58.96775316	      2.32313713	      0.00000000	      1.00611826	     -0.00000000	     17.13303508	      0.00000000
     15.00000000	      0.00000000	      0.00000000	      0.00000000	      0.00000000	      0.00000000	      0.00000000	      0.00000000	      0.00000000	      0.00000000	   -192.86052197	   1458.25889321	     59.85563372	      2.32122484	      0.00000000	      1.00601080	     -0.00000000	     17.12752509	      0.00000000
     15.00100000	      0.00000000	      0.00000000	      0.00000000	      0.00000000	      0.00000000	      0.00000000	      0.00000000	      0.00000000	      0.00000000	   -191.57419472	   1468.42072023	     60.74178959	      2.31921234	      0.00000000	      1.00590310	     -0.00000000	     17.11238935	      0.00000000
     15.00200000	      0.00000000	      0.00000000	      0.00000000	      0.00000000	      0.00000000	      0.00000000	      0.00000000	      0.00000000	      0.00000000	   -190.28786748	   1478.58254724	     61.62794545	      2.31719984	      0.00000000	      1.00579541	     -0.00000000	     17.09725362	      0.00000000
     15.00300000	      0.00000000	      0.00000000	      0.00000000	      0.00000000	      0.00000000	      0.00000000	      0.00000000	      0.00000000	      0.00000000	   -189.00154024	   1488.74437426	     62.51410131	      2.31518734	      0.00000000	      1.00568771	     -0.00000000	     17.08211789	      0.00000000
     15.00400000	      0.00000000	      0.00000000	      0.00000000	      0.00000000	      0.00000000	      0.00000000	      0.00000000	      0.00000000	      0.00000000	   -187.38603640	   1498.53315394	     63.38960358	      2.31311705	      0.00000000	      1.00558216	     -0.00000000	     17.06180698	      0.00000000
     15.00500000	      0.00000000	      0.00000000	      0.00000000	      0.00000000	      0.00000000	      0.00000000	      0.00000000	      0.00000000	      0.00000000	   -185.60594427	   1508.13540995	     64.25977904	      2.31101787	      0.00000000	      1.00547767	     -0.00000000	     17.03890849	      0.00000000
     15.00600000	      0.00000000	      0.00000000	      0.00000000	      0.00000000	      0.00000000	      0.00000000	      0.00000000	      0.00000000	      0.00000000	   -183.82585213	   1517.73766596	     65.12995451	      2.30891869	      0.00000000	      1.00537318	     -0.00000000	     17.01600999	      0.00000000
     15.00700000	      0.00000000	      0.00000000	      0.00000000	      0.00000000	      0.00000000	      0.00000000	      0.00000000	      0.00000000	      0.00000000	   -181.89431515	   1527.13953958	     65.99023418	      2.30679535	      0.00000000	      1.00527069	     -0.00000000	     16.99102982	      0.00000000
     15.00800000	      0.00000000	      0.00000000	      0.00000000	      0.00000000	      0.00000000	      0.00000000	      0.00000000	      0.00000000	      0.00000000	   -179.65988848	   1536.14064841	     66.83072227	      2.30462370	      0.00000000	      1.00517218	     -0.00000000	     16.96188631	      0.00000000
     15.00900000	      0.00000000	      0.00000000	      0.00000000	      0.00000000	      0.00000000	      0.00000000	      0.00000000	      0.00000000	      0.00000000	   -177.42546181	   1545.14175725	     67.67121036	      2.30245204	      0.00000000	      1.00507367	     -0.00000000	     16.93274280	      0.00000000
     15.01000000	      0.00000000	      0.00000000	      0.00000000	      0.00000000	      0.00000000	      0.00000000	      0.00000000	      0.00000000	      0.00000000	   -175.19103514	   1554.14286608	     68.51169845	      2.30028039	      0.00000000	      1.00497517	     -0.00000000	     16.90359928	      0.00000000
     15.01100000	      0.00000000	      0.00000000	      0.00000000	      0.00000000	      0.00000000	      0.00000000	      0.00000000	      0.00000000	      0.00000000	   -172.54902572	   1562.49312276	     69.30980823	      2.29805071	      0.00000000	      1.00488475	     -0.00000000	     16.86947531	      0.00000000
     15.01200000	      0.00000000	      0.00000000	      0.00000000	      0.00000000	      0.00000000	      0.00000000	      0.00000000	      0.00000000	      0.00000000	   -169.90701630	   1570.84337945	     70.10791801	      2.29582104	      0.00000000	      1.00479432	     -0.00000000	     16.83535133	      0.00000000
     15.01300000	      0.00000000	      0.00000000	      0.00000000	      0.00000000	      0.00000000	      0.00000000	      0.00000000	      0.00000000	      0.00000000	   -167.26500688	   1579.19363613	     70.90602779	      2.29359136	      0.00000000	      1.00470390	     -0.00000000	     16.80122736	      0.00000000
